<svg version="1.2" xmlns="http://www.w3.org/2000/svg" viewBox="0 0 1280 698" width="1280" height="698">
	<style>
		.s0 { fill: #ffffff } 
	</style>
	<path id="Path 0" fill-rule="evenodd" class="s0" d="m646 40.57c9.63 0.2 22.23 1.1 28 1.98 5.77 0.89 17.02 2.93 25 4.55 7.98 1.61 20.58 5 28 7.53 7.42 2.53 19.58 7.38 27 10.78 7.42 3.41 19.48 9.77 26.79 14.14 7.3 4.37 17.46 11.1 22.57 14.95 5.11 3.85 11.73 8.95 14.71 11.34 2.99 2.38 10.1 8.91 15.8 14.5 5.7 5.59 13.6 13.98 17.56 18.66 3.95 4.68 9.87 12.1 13.16 16.5 3.28 4.4 8.49 12.05 11.57 17 3.08 4.95 7.5 12.38 9.82 16.5 2.33 4.13 6.02 11.55 8.21 16.5 2.19 4.95 6.37 15.53 9.29 23.5 2.92 7.97 6.46 19.68 7.89 26 1.42 6.32 3.54 16.9 4.72 23.5 1.63 9.15 2.26 17.59 2.63 35.5 0.39 18.47 0.14 26.07-1.16 35.5-0.91 6.6-2.96 18.52-4.55 26.5-1.6 7.98-4.92 20.57-7.38 28-2.46 7.43-6.79 18.68-9.62 25-2.83 6.32-7.44 15.77-10.25 21-2.82 5.23-7.58 13.32-10.59 18-3.01 4.68-8.66 12.76-12.57 17.97-3.9 5.22-11.41 14.22-16.67 20-5.26 5.79-13.82 14.36-19.03 19.03-5.21 4.67-13.73 11.7-18.93 15.6-5.21 3.91-13.41 9.65-18.22 12.75-4.81 3.11-12.91 7.96-18 10.78-5.09 2.82-14.42 7.38-20.75 10.13-6.33 2.75-17.8 7.13-25.5 9.74-7.7 2.61-16.02 5.25-18.5 5.87-2.48 0.63-10.35 2.24-17.5 3.58-7.15 1.33-17.05 2.91-22 3.49-4.95 0.58-16.99 1.06-26.75 1.06-9.76 0-22.14-0.47-27.5-1.05-5.36-0.58-17.4-2.6-26.75-4.49-9.35-1.88-23.08-5.42-30.5-7.86-7.42-2.44-19.13-6.91-26-9.92-6.87-3.02-17.23-8.15-23-11.4-5.77-3.26-13.2-7.64-16.5-9.74-3.3-2.11-9.15-6.11-13-8.91-3.85-2.79-10.6-8.05-15-11.7-4.4-3.64-12.53-11.07-18.06-16.52-5.53-5.45-13.98-14.64-18.77-20.41-4.79-5.77-12.67-16.35-17.51-23.5-4.84-7.15-11.08-17.27-13.87-22.5-2.79-5.23-7.31-14.45-10.04-20.5-2.72-6.05-7.24-17.98-10.04-26.5-2.79-8.52-6.42-22.48-8.05-31-1.64-8.52-3.53-20.9-4.21-27.5-0.79-7.76-1.02-19.25-0.64-32.5 0.32-11.27 1.28-24.89 2.14-30.25 0.85-5.36 2.71-15.26 4.14-22 1.42-6.74 4.73-18.55 7.35-26.25 2.62-7.7 7.17-19.4 10.11-26 2.94-6.6 7.86-16.5 10.95-22 3.09-5.5 8-13.6 10.92-18 2.92-4.4 8.97-12.72 13.44-18.5 4.48-5.78 13.09-15.62 19.14-21.87 6.05-6.25 15.05-14.8 20-18.99 4.95-4.19 9.45-7.96 10-8.37 0.55-0.41 3.25-2.48 6-4.59 2.75-2.11 8.82-6.31 13.5-9.32 4.68-3.01 13-7.99 18.5-11.07 5.5-3.07 14.95-7.81 21-10.53 6.05-2.72 17.98-7.24 26.5-10.06 8.52-2.81 22.48-6.45 31-8.08 8.52-1.64 19.77-3.46 25-4.05 5.23-0.6 11.3-1.26 13.5-1.48 2.2-0.22 11.88-0.23 21.5-0.02zm-10.96 79.43c-2.25 14.02-5.66 34.72-7.57 46-1.91 11.27-4.38 26.57-5.48 34-1.1 7.42-3.58 22.39-5.5 33.25-1.92 10.86-3.52 20.99-3.56 22.5-0.04 1.51-0.38 3.54-0.75 4.5-0.59 1.5-1.81 0.95-8.85-4-4.49-3.16-12.82-8.99-18.5-12.96-5.68-3.96-20.91-14.5-33.83-23.43-12.92-8.92-25.3-17.45-27.5-18.96-2.2-1.51-4.11-2.55-4.25-2.32-0.14 0.23 6.35 9.98 14.42 21.67 8.06 11.69 16.52 23.95 18.8 27.25 2.27 3.3 9.85 14.21 16.83 24.25 6.99 10.04 12.59 18.47 12.45 18.73-0.14 0.27-4.3 1.12-9.25 1.9-4.95 0.78-20.02 3.25-33.5 5.5-13.48 2.24-39.8 6.51-58.5 9.5-18.7 2.99-41.88 6.68-51.5 8.2-9.62 1.52-17.73 2.91-18 3.09-0.27 0.18-0.27 0.52 0 0.76 0.27 0.24 11.75 2.23 25.5 4.43 13.75 2.2 28.6 4.51 33 5.13 4.4 0.62 13.85 2.21 21 3.55 7.15 1.33 20.43 3.52 29.5 4.86 9.08 1.34 26.74 4.16 39.25 6.27 12.51 2.11 22.75 4.17 22.75 4.58 0 0.41-2.46 4.24-5.46 8.5-3 4.26-6.76 9.55-8.34 11.75-1.58 2.2-7.33 10.45-12.79 18.34-5.45 7.88-11.03 15.98-12.41 17.99-1.37 2.02-7.17 10.42-12.87 18.67-5.7 8.25-10.64 15.67-10.96 16.5-0.32 0.82 2.32-0.58 5.87-3.12 3.55-2.54 13.44-9.48 21.96-15.43 8.52-5.94 21.41-14.89 28.63-19.88 7.22-4.99 18.24-12.56 24.5-16.84 6.25-4.27 11.44-7.64 11.52-7.5 0.08 0.15 2.7 15.79 5.82 34.77 3.11 18.98 7.62 46.42 10.02 61 2.39 14.57 6.02 37.07 8.06 50 2.05 12.92 4 23.82 4.33 24.22 0.34 0.4 2.36-10.18 4.49-23.5 2.13-13.32 5.6-34.57 7.72-47.22 2.11-12.65 4.54-27.73 5.39-33.5 0.84-5.77 3.3-21.08 5.46-34 2.16-12.93 4.18-25.64 4.49-28.25l0.57-4.75c4.85 3.49 9.8 6.98 14.14 10 4.34 3.02 14.29 9.92 22.12 15.33 7.83 5.41 20.17 13.96 27.43 19 7.25 5.04 16.59 11.53 20.75 14.42 4.16 2.89 7.79 5.02 8.06 4.75 0.27-0.27-2.43-4.66-6.02-9.75-3.59-5.09-9.96-14.2-14.17-20.25-4.2-6.05-15.22-21.91-24.48-35.25-9.26-13.34-17.06-24.93-17.33-25.75-0.35-1.04 0.2-1.5 1.75-1.51 1.24 0 7.2-0.86 13.25-1.91 6.05-1.05 19.1-3.25 29-4.89 9.9-1.64 22.73-3.68 28.5-4.53 5.77-0.85 16.58-2.65 24-4 7.42-1.35 16.2-2.74 19.5-3.09 3.3-0.35 8.25-1.08 11-1.62 2.75-0.55 13.55-2.36 24-4.04 10.45-1.68 19.23-3.24 19.5-3.47 0.27-0.23-0.17-0.63-1-0.88-0.83-0.25-8.48-1.59-17-2.97-8.52-1.38-31.25-5.02-50.5-8.09-19.25-3.07-46.92-7.56-61.5-9.97-14.58-2.41-29.2-4.66-32.5-5.01-3.3-0.35-6.6-0.94-7.32-1.33-0.97-0.5 1.01-4.1 7.26-13.19 4.72-6.88 13.09-19.02 18.61-27 5.53-7.98 14.18-20.45 19.25-27.73 5.06-7.27 11-15.71 13.2-18.74 2.2-3.04 3.77-5.71 3.5-5.93-0.27-0.22-3.65 1.77-7.5 4.44-3.85 2.66-13.3 9.16-21 14.44-7.7 5.29-20.98 14.46-29.5 20.38-8.52 5.92-19.44 13.55-24.25 16.95-4.81 3.41-9.2 6.19-9.75 6.19-0.55 0-1-0.34-0.99-0.75 0.01-0.41-1.83-11.55-4.07-24.75-2.25-13.2-5.13-30.75-6.41-39-1.27-8.25-4.21-26.48-6.53-40.5-2.32-14.03-5.68-34.28-7.46-45-1.79-10.73-3.51-18.83-3.83-18-0.32 0.82-2.42 12.97-4.67 27zm-83.04 111c0.55 0 15.63 14.96 33.52 33.25 17.89 18.29 32.51 33.59 32.5 34-0.01 0.41-0.81 0.72-1.77 0.69-0.96-0.03-7.09-1.72-25.48-7.44l-19.88-29.25c-10.94-16.09-19.89-29.7-19.89-30.25 0-0.55 0.45-1 1-1zm172.75 1.08c0.69-0.04 1.25 0.37 1.25 0.92 0 0.55-14.74 15.41-32.75 33.02-18.01 17.61-33.09 32.01-33.5 32-0.41-0.01-0.72-0.81-0.69-1.77 0.03-0.96 1.72-7.09 7.44-25.46l28.5-19.32c15.67-10.62 29.06-19.35 29.75-19.39zm-85 68.98c2.34-0.03 5.49 0.42 7 1.01 1.51 0.58 3.81 2.05 5.1 3.25 1.29 1.2 3.2 3.87 4.25 5.93 1.04 2.06 1.89 5.66 1.89 8-0.01 2.34-0.91 6.16-2 8.5-1.35 2.87-3.37 5.05-6.24 6.73-2.88 1.68-5.79 2.48-9 2.5-2.61 0.01-6.21-0.6-8-1.36-1.79-0.75-4.46-2.67-5.94-4.25-1.47-1.58-3.16-4.11-3.75-5.62-0.58-1.51-1.06-4.55-1.06-6.75 0-2.2 0.86-5.69 1.9-7.75 1.05-2.06 2.96-4.74 4.25-5.94 1.29-1.2 3.48-2.64 4.85-3.19 1.38-0.54 4.41-1.02 6.75-1.06zm25.2 38.46c0.85 0.32 6.88 2.03 25.26 6.98l19.39 28.75c10.67 15.81 19.4 29.2 19.4 29.75 0 0.55-0.34 1-0.75 1-0.41 0-15.5-14.73-33.54-32.75-18.03-18.01-32.45-33.1-32.05-33.53 0.41-0.43 1.44-0.52 2.29-0.2zm-45.71 1.48c0.42 0 0.73 0.79 0.7 1.75-0.03 0.96-1.72 7.1-7.44 25.52l-28 19.34c-15.4 10.63-28.45 19.07-29 18.75-0.55-0.33 2.6-4.25 6.99-8.73 4.4-4.47 18.79-19.04 31.99-32.38 13.2-13.34 24.35-24.25 24.76-24.25z"/>
</svg>