<svg version="1.2" xmlns="http://www.w3.org/2000/svg" viewBox="0 0 1728 286" width="1728" height="286">
	<style>
		.s0 { fill: #ffffff } 
	</style>
	<g id="Capa 1">
		<path id="Path 0" fill-rule="evenodd" class="s0" d="m386 18.48c5.77 0.25 15 1.38 20.5 2.5 5.5 1.13 12.25 2.79 15 3.68 2.75 0.9 8.82 3.42 13.5 5.61 4.68 2.19 12.32 6.5 17 9.58 4.68 3.09 12.05 8.99 16.39 13.13 4.33 4.14 10.43 10.89 13.55 15.02 3.12 4.12 7.6 10.87 9.95 15 2.35 4.12 5.34 10.2 6.65 13.5 1.31 3.3 3.3 8.92 4.44 12.5 1.13 3.58 2.71 11 3.52 16.5 0.8 5.5 1.47 13.71 1.48 18.25 0.01 4.54-0.65 12.41-1.47 17.5-0.82 5.09-2.33 12.18-3.35 15.75-1.02 3.57-3.71 10.78-5.99 16-2.28 5.22-6.28 12.73-8.9 16.67-2.63 3.95-7.25 10.16-10.27 13.81-3.02 3.65-8.2 9.02-11.5 11.94-3.3 2.93-9.82 7.9-14.5 11.06-4.68 3.16-10.98 6.99-14 8.52-3.02 1.52-10.23 4.37-16 6.34-5.77 1.96-14.89 4.26-20.25 5.11-5.36 0.85-13.69 1.55-18.5 1.55-4.81-0.01-12.57-0.64-17.25-1.41-4.68-0.76-11.88-2.3-16-3.41-4.13-1.1-9.3-2.75-11.5-3.66-2.2-0.9-7.6-3.48-12-5.72-4.4-2.23-10.48-5.75-13.5-7.8-3.02-2.06-7.97-5.94-10.98-8.62-3.02-2.68-7.74-7.31-10.5-10.27-2.76-2.96-6.84-7.91-9.06-11-2.23-3.09-5.55-8.08-7.39-11.11-1.83-3.03-4.43-7.97-5.78-11-1.34-3.03-3.5-8.65-4.81-12.5-1.3-3.85-3.18-10.82-4.17-15.5-1.3-6.08-1.79-12.63-1.75-23 0.04-9.93 0.61-17.02 1.81-22.5 0.97-4.4 2.69-10.93 3.83-14.5 1.14-3.58 4.03-10.55 6.41-15.5 2.38-4.95 5.13-10.37 6.11-12.06 0.98-1.68 3.78-5.73 6.22-9 2.44-3.26 8.52-10 13.5-14.96 4.98-4.97 12.88-11.54 17.56-14.6 4.68-3.07 12.32-7.37 17-9.56 4.68-2.19 11.65-4.96 15.5-6.16 3.85-1.2 11.95-3.08 18-4.16 8.11-1.46 13.76-1.86 21.5-1.52zm-3.29 29.52c-0.36 1.37-1.33 6.55-2.15 11.5-0.82 4.95-2.43 14.85-3.57 22-1.14 7.15-2.52 15.7-3.07 19-0.55 3.3-1.43 8.36-1.96 11.25-0.55 2.99-1.5 5.26-2.21 5.28-0.69 0.01-3.05-1.25-5.25-2.81-2.2-1.57-9.85-6.81-17-11.66-7.15-4.85-13.87-9.55-14.93-10.44-1.07-0.89 0.69 2.2 3.9 6.88 3.21 4.67 9.26 13.4 13.43 19.39 6.56 9.4 7.38 11.04 6.03 12-0.87 0.61-6.49 1.94-12.5 2.95-6.01 1.01-16.11 2.68-22.43 3.7-6.32 1.03-17.13 2.8-24 3.95-6.88 1.15-12.69 2.29-12.92 2.55-0.23 0.25 0.9 0.45 2.5 0.45 1.61-0.01 13.94 1.81 27.42 4.04 13.48 2.23 28.66 4.71 33.75 5.51 5.96 0.94 9.25 1.9 9.24 2.71 0 0.69-0.79 2.45-1.75 3.91-0.95 1.46-5.79 8.43-10.74 15.48-4.95 7.05-9.79 14.06-10.75 15.59-0.96 1.52-1.52 2.77-1.25 2.77 0.27 0 8.71-5.65 18.75-12.55 10.04-6.9 18.58-12.19 18.99-11.75 0.41 0.44 1.64 5.75 2.73 11.8 1.1 6.05 3.36 19.55 5.04 30 1.68 10.45 3.56 21.47 4.18 24.5l1.13 5.5c1.92-12.4 4.33-27.47 6.59-41.5 2.26-14.03 4.33-26.74 4.6-28.25 0.27-1.51 1.05-2.73 1.74-2.7 0.69 0.03 5.75 3.2 11.25 7.03 5.5 3.84 14.05 9.76 19 13.16l9 6.18c-9.2-13.11-13.44-19.17-15.36-21.92-1.93-2.75-5.22-7.47-7.32-10.5-2.1-3.03-3.82-6.06-3.82-6.75 0-0.81 3.29-1.77 9.25-2.71 5.09-0.8 16.68-2.63 25.75-4.07 9.07-1.44 20.1-3.26 24.5-4.04 4.4-0.78 9.35-1.41 11-1.4 1.65 0.02 2.77-0.2 2.5-0.47-0.27-0.27-5.68-1.38-12-2.47-6.32-1.09-17.35-2.93-24.5-4.09-7.15-1.16-17.27-2.78-22.5-3.61-5.23-0.83-10.51-1.71-11.75-1.95-1.24-0.24-2.25-0.89-2.25-1.44 0-0.55 1.49-3.14 3.31-5.75 1.82-2.61 5.94-8.58 9.16-13.25 3.21-4.67 7.27-10.53 9.03-13 1.75-2.47 3.48-5.06 3.84-5.75 0.36-0.69-1.93 0.59-5.09 2.84-3.16 2.25-11.6 8.1-18.75 13-7.15 4.9-13.56 8.91-14.25 8.91-0.69 0-1.46-1.24-1.71-2.75-0.26-1.51-0.92-5.45-1.48-8.75-0.56-3.3-1.95-11.85-3.09-19-1.14-7.15-2.94-18.18-4-24.5-1.06-6.33-2.08-12.63-2.27-14l-0.34-2.5z"/>
		<path id="Path 1" class="s0" d="m359.48 165.98c-8.37 8.38-11.68 12.32-10.98 13.1 0.71 0.79 4.1-1 11.78-6.24 10.05-6.84 10.88-7.66 12.25-12.09 0.81-2.61 1.24-5.2 0.97-5.75-0.27-0.55-0.84-1-1.27-1-0.42 0-6.15 5.39-12.75 11.98zm34.95-12.73c-0.42 0.78 4.17 6.04 12.2 13.98 8.45 8.36 13.21 12.4 13.87 11.76 0.66-0.64-1.72-4.94-7-12.66-7.44-10.87-8.31-11.78-12.5-12.99-2.48-0.72-4.82-1.32-5.2-1.32-0.39-0.01-1 0.54-1.37 1.23zm-17.44-16.06c-1.27 1.34-2.06 3.47-2.03 5.5 0.02 1.82 0.38 4.05 0.79 4.95 0.41 0.9 1.99 2.25 3.5 3 1.51 0.75 3.54 1.38 4.5 1.39 0.96 0.02 2.99-0.88 4.5-2 2.29-1.69 2.75-2.78 2.75-6.53 0-3.17-0.59-5.09-2-6.5q-2-2-5.96-2c-2.78 0-4.59 0.66-6.05 2.19zm28.51-23.64c-10.59 7.16-11.06 7.63-12.65 12.69-0.93 2.98-1.28 5.69-0.8 6.26 0.53 0.62 4.57-2.47 10.65-8.16 5.39-5.04 11.31-10.66 13.16-12.5 1.84-1.84 3.08-3.9 2.75-4.59-0.34-0.69-0.95-1.22-1.36-1.19-0.41 0.04-5.7 3.41-11.75 7.49zm-59.86-6.6c-0.35 0.58 2.85 6.22 7.11 12.54 7.37 10.94 7.99 11.57 12.75 13.09 3.54 1.13 5.29 1.28 6 0.52 0.69-0.73-1.35-3.48-6.5-8.77-4.13-4.23-9.3-9.53-11.5-11.77-2.2-2.23-4.72-4.64-5.61-5.36q-1.61-1.31-2.25-0.25z"/>
		<path id="Path 2" fill-rule="evenodd" class="s0" d="m1121.5 27.05l89-0.07 42.89 116.26c23.59 63.94 43.05 116.82 43.25 117.51 0.28 0.99-7.66 1.2-76.02 0.75l-2.84-9.5c-1.56-5.23-3.5-11.86-5.78-20l-91.43 0.5-9.07 29.53-76.5-0.03 3.25-8.82c1.79-4.85 21.25-57.72 43.25-117.48zm31 103.96c-7.01 21.72-12.91 40.06-13.12 40.75-0.3 0.97 5.49 1.25 26.62 1.25 14.85 0 27-0.34 27-0.75 0.01-0.42-5.88-18.98-13.09-41.25-7.2-22.28-13.2-40.65-13.32-40.82-0.13-0.17-0.49 0.05-0.79 0.5-0.31 0.45-6.29 18.59-13.3 40.32z"/>
		<path id="Path 3" fill-rule="evenodd" class="s0" d="m851 27l63.25 0.02c35.51 0.01 67.42 0.46 72.75 1.02 5.23 0.56 12.2 1.71 15.5 2.56 3.3 0.85 8.7 2.73 12 4.17 3.3 1.44 8.48 4.18 11.5 6.09 3.03 1.91 7.7 5.54 10.39 8.06 2.69 2.52 6.56 6.83 8.6 9.58 2.05 2.75 5.08 7.7 6.75 11 1.67 3.3 4 9.15 5.18 13 1.18 3.85 2.61 11.28 3.17 16.5 0.71 6.64 0.69 12.36-0.07 19-0.6 5.26-2.41 13.29-4.05 18-1.63 4.68-4.42 10.93-6.22 13.9-1.79 2.96-5.5 7.87-8.25 10.9-2.75 3.03-7.25 7.18-10 9.21-2.75 2.03-7.81 5.11-11.25 6.84-3.44 1.73-10.19 4.29-15 5.68-4.81 1.39-13.7 2.96-19.75 3.49-6.05 0.53-23.04 0.97-64.5 0.98v75h-70zm70 101c38.36-0.01 51.19-0.46 53.25-1.01 2.06-0.54 5.4-2.45 7.41-4.24 2.02-1.79 4.48-5.05 5.48-7.25 1-2.2 1.82-6.03 1.82-8.5 0-2.47-0.84-6.3-1.86-8.5-1.02-2.2-2.81-5.01-3.98-6.25-1.17-1.24-3.58-3.04-5.37-4-2.82-1.52-6.81-1.79-29.94-2.06l-26.69-0.31z"/>
		<path id="Path 4" class="s0" d="m532.5 27.67c-0.46 0.36-0.76 53.24-0.67 117.5l0.17 116.83c54.38 0.39 70.37 0.27 70.61 0 0.25-0.27 0.43-33.35 0.41-73.5-0.04-61.49 0.17-72.76 1.31-71.5 0.75 0.82 2.29 4.2 3.43 7.5 1.13 3.3 3.71 10.72 5.73 16.5 2.01 5.78 4.75 13.54 6.08 17.25 1.34 3.71 3.52 9.79 4.86 13.5 1.33 3.71 3.99 11.25 5.92 16.75 1.92 5.5 7.16 20.35 11.64 33 4.49 12.65 9.22 25.93 10.51 29.5 1.29 3.57 2.6 7.51 2.92 8.75 0.57 2.21 0.85 2.25 16.33 2.28l15.75 0.04c2.86-7.42 4.74-12.5 6.02-16.07 1.29-3.57 5.11-14.38 8.5-24 3.38-9.63 9.75-27.63 14.14-40 4.39-12.38 9.05-25.43 10.34-29 1.3-3.57 4.67-13.03 7.49-21 2.82-7.97 5.56-14.95 6.08-15.5 0.62-0.64 0.96 25.46 0.95 72.25l-0.02 73.25h71l-0.5-234.5h-97.77c-6.47 18.6-10.2 29.4-12.46 36-2.27 6.6-8 23.25-12.74 37-4.74 13.75-9.99 29.05-11.67 34-1.68 4.95-3.35 9.59-3.71 10.32-0.54 1.1-0.84 1.1-1.76 0-0.6-0.73-1.35-2.22-1.65-3.32-0.3-1.1-4.45-13.25-9.22-27-4.78-13.75-11.3-32.65-14.5-42-3.19-9.35-7.91-23.08-10.47-30.5-2.57-7.43-4.87-13.84-5.11-14.25-0.24-0.41-22.19-0.75-48.77-0.75-26.59 0-48.71 0.3-49.17 0.67z"/>
		<path id="Path 5" class="s0" d="m1382 24.53c-0.83 0.16-4.88 0.83-9 1.5-4.13 0.66-11.1 2.32-15.5 3.68-4.4 1.36-11.99 4.58-16.88 7.14-6.03 3.16-11.47 7.09-17 12.28-5.06 4.75-9.72 10.31-12.37 14.75-2.34 3.91-5.39 10.61-6.79 14.87-1.6 4.86-2.74 11.11-3.08 16.75-0.36 6.03-0.02 11.8 1.02 17.5 0.87 4.72 3.05 11.61 4.91 15.5 1.96 4.1 5.8 9.64 9.27 13.37 3.25 3.5 8.84 8.3 12.42 10.67 3.58 2.37 10.1 5.85 14.5 7.74 4.4 1.89 12.05 4.6 17 6.02 4.95 1.43 19.13 4.62 31.5 7.09 12.37 2.47 24.97 5.42 28 6.55 3.03 1.14 6.73 3.3 8.23 4.81 1.5 1.51 3.14 4.1 3.64 5.75q0.91 3-0.3 6c-0.66 1.65-2.52 3.96-4.14 5.14-1.61 1.17-5.4 2.87-8.43 3.76-3.28 0.97-9.13 1.62-14.5 1.62-4.95 0-13.05-0.7-18-1.56-4.95-0.86-12.38-2.73-16.5-4.14-4.13-1.42-10.2-3.93-13.5-5.59-3.3-1.65-8.7-4.82-12-7.04-3.3-2.22-7.8-5.55-10-7.39-2.2-1.84-4.42-3.22-4.93-3.07-0.51 0.16-8.89 11.76-18.61 25.78l-17.67 25.49c7.14 5.9 12.13 9.56 15.71 11.94 3.58 2.38 10.1 6.13 14.5 8.32 4.4 2.19 11.37 5.19 15.5 6.67 4.12 1.47 11.1 3.59 15.5 4.7 4.4 1.11 12.72 2.68 18.5 3.49 5.88 0.83 17.97 1.49 27.5 1.49 9.35 0.01 20.37-0.46 24.5-1.04 4.12-0.58 10.65-1.8 14.5-2.72 3.85-0.91 11.05-3.28 16-5.27 4.95-1.98 12.33-5.85 16.4-8.59 4.07-2.75 10.06-7.92 13.3-11.49 3.25-3.57 7.66-9.87 9.8-14 2.15-4.12 4.88-11.1 6.07-15.5 1.66-6.08 2.2-10.99 2.26-20.5 0.06-9.39-0.37-13.99-1.73-18.5-1-3.3-3.19-8.7-4.87-12-1.85-3.62-5.87-8.77-10.15-13-4.01-3.95-10.36-8.85-14.59-11.24-4.12-2.33-11.99-5.85-17.49-7.82-5.5-1.98-14.5-4.67-20-5.99-5.5-1.32-18.55-4.01-29-5.99-10.45-1.98-21.21-4.58-23.91-5.78-2.7-1.2-5.75-3.3-6.78-4.68-1.03-1.37-1.86-3.96-1.84-5.75 0.01-1.79 0.65-4.49 1.41-6 0.79-1.58 3.22-3.6 5.72-4.75 3.6-1.65 6.35-1.99 15.88-1.92 8.51 0.06 13.87 0.68 20.52 2.38 4.95 1.26 12.37 3.61 16.5 5.24 4.12 1.62 10.42 4.56 14 6.54 3.58 1.98 7.97 4.76 9.77 6.18 1.81 1.42 3.46 2.36 3.67 2.08 0.22-0.28 8.75-11.53 18.96-25l18.57-24.5c-3.47-2.73-6.94-5.18-9.97-7.21-3.03-2.04-9.1-5.6-13.5-7.93-4.4-2.32-11.15-5.4-15-6.85-3.85-1.45-11.28-3.74-16.5-5.1-5.22-1.35-14.56-3.13-20.75-3.94-6.19-0.81-17.44-1.42-25-1.35-7.56 0.06-14.42 0.24-15.25 0.41z"/>
		<path id="Path 6" class="s0" d="m128 24.12c-5.78 0.43-13.88 1.51-18 2.39-4.13 0.89-10.42 2.56-14 3.7-3.58 1.14-10.1 3.73-14.5 5.74-4.4 2.01-11.15 5.69-15 8.17-3.85 2.48-10.35 7.4-14.45 10.94-4.1 3.54-10.27 10.04-13.72 14.44-3.44 4.4-8.27 11.83-10.72 16.5-2.45 4.67-5.55 11.42-6.88 15-1.33 3.58-3.16 9.65-4.05 13.5-0.9 3.85-2.1 10.49-2.66 14.75-0.56 4.26-1.02 11.24-1.03 15.5 0 4.26 0.49 11.57 1.09 16.25 0.6 4.68 1.93 11.88 2.96 16 1.02 4.13 3.13 10.65 4.69 14.5 1.56 3.85 4.46 9.93 6.45 13.5 1.99 3.57 5.64 9.2 8.12 12.5 2.48 3.3 7.81 9.31 11.85 13.37 4.04 4.05 11.18 9.93 15.85 13.06 4.67 3.13 11.88 7.3 16 9.27 4.13 1.96 11.78 4.92 17 6.58 5.22 1.66 14 3.77 19.5 4.69 5.72 0.96 15.56 1.68 23 1.68 7.15 0.01 16.82-0.52 21.5-1.16 4.68-0.65 12.32-2.29 17-3.65 4.68-1.36 12.1-4.16 16.5-6.22 4.4-2.05 10.93-5.72 14.5-8.15 3.57-2.44 9.6-7.36 13.39-10.95 3.78-3.58 8.79-8.99 11.13-12.02 2.34-3.03 6.23-8.88 8.64-13 2.42-4.13 4.9-8.63 5.52-10l1.13-2.5c-45.97-21.27-59.65-27.46-60.06-27.47-0.41-0.02-1.88 2.33-3.27 5.22-1.38 2.89-4.46 7.5-6.84 10.25-2.38 2.75-6.76 6.69-9.73 8.76-2.98 2.06-8.67 4.87-12.66 6.25-5.56 1.91-9.29 2.49-16 2.5-4.81 0-11.34-0.68-14.5-1.5-3.16-0.83-7.89-2.59-10.5-3.91-2.61-1.31-7-4.17-9.75-6.35-2.75-2.18-7.14-7.06-9.76-10.85-2.62-3.8-5.95-10.28-7.42-14.4-2.09-5.92-2.75-9.92-3.11-19-0.38-9.59-0.1-12.79 1.67-19.25 1.17-4.26 3.54-10.56 5.27-14 1.73-3.44 5.89-9.1 9.25-12.59 3.35-3.49 8.8-7.85 12.1-9.7 3.3-1.84 8.7-4.06 12-4.93 3.3-0.87 9.82-1.59 14.5-1.61 5.73-0.01 10.62 0.63 15 1.98 3.57 1.1 9.2 3.74 12.5 5.86 3.3 2.13 8.13 6.31 10.73 9.3 2.61 2.99 5.87 7.8 7.25 10.69 1.39 2.89 2.86 5.25 3.27 5.26 0.41 0 14.09-6.19 30.39-13.75l29.65-13.76c-6.43-12.44-10.37-18.97-12.92-22.53-2.54-3.56-7.71-9.56-11.5-13.34-3.78-3.79-9.57-8.81-12.87-11.18-3.3-2.36-9.6-6.1-14-8.3-4.4-2.21-11.37-5.12-15.5-6.47-4.12-1.35-12-3.16-17.5-4.02-5.5-0.86-13.6-1.73-18-1.94-4.4-0.21-12.72-0.03-18.5 0.4z"/>
		<path id="Path 7" class="s0" d="m1592.5 25.46c-4.4 0.69-10.92 2.05-14.5 3.01-3.58 0.97-11 3.9-16.5 6.52-5.5 2.62-12.92 7.08-16.5 9.92-3.58 2.83-8.66 7.72-11.31 10.87-2.64 3.15-6.54 9.32-8.66 13.72-2.12 4.4-4.57 11.26-5.44 15.25-0.87 3.99-1.59 10.85-1.59 15.25 0 4.4 0.49 10.36 1.08 13.25 0.6 2.89 1.95 7.61 3 10.5 1.06 2.89 3.42 7.61 5.25 10.5 1.83 2.89 6.67 8.32 10.75 12.07 5.12 4.7 10.21 8.18 16.42 11.22 4.95 2.42 13.28 5.79 18.5 7.5 5.22 1.7 19.63 5.1 32 7.56 12.38 2.45 24.53 5.06 27 5.79 2.47 0.74 6.41 2.3 8.75 3.47 2.34 1.18 5.17 3.38 6.28 4.89 1.14 1.53 2.04 4.3 2.04 6.25 0 1.93-0.85 4.63-1.88 6-1.03 1.37-4.31 3.62-7.28 5-5.04 2.33-6.43 2.49-20.41 2.42-12.91-0.07-16.4-0.46-25-2.75-5.69-1.51-14.74-5.02-21-8.13-6.05-3.01-14.6-8.32-19-11.81l-8-6.33c-27.67 39.6-35.77 51.4-35.85 51.77-0.08 0.36 2.85 3.06 6.51 6 3.66 2.93 10.41 7.56 15 10.28 4.59 2.72 12.62 6.69 17.84 8.82 5.22 2.13 13.55 4.92 18.5 6.21 4.95 1.3 14.17 3.09 20.5 3.99 6.91 0.97 18.29 1.64 28.5 1.65 10.24 0.02 20.98-0.57 27-1.48 5.5-0.83 13.83-2.72 18.5-4.18 4.67-1.47 11.65-4.21 15.5-6.08 3.85-1.87 10.12-5.76 13.93-8.64 3.82-2.88 9.12-7.94 11.8-11.24 2.67-3.3 6.41-9.15 8.32-13 1.9-3.85 4.38-10.6 5.51-15 1.4-5.47 2.09-11.48 2.17-19 0.06-6.05-0.47-13.47-1.18-16.5-0.71-3.03-2.54-8.2-4.07-11.5-1.54-3.3-4.97-8.66-7.64-11.92-2.66-3.26-7.54-7.82-10.84-10.13-3.3-2.32-9.38-5.9-13.5-7.96-4.13-2.05-12-5.23-17.5-7.06-5.5-1.82-16.75-4.66-25-6.31-8.25-1.65-19.95-3.96-26-5.13-6.05-1.17-13.03-2.99-15.5-4.04-2.47-1.05-5.54-2.93-6.81-4.18-1.75-1.72-2.3-3.35-2.26-6.77 0.02-2.47 0.65-5.4 1.38-6.5 0.74-1.1 3.11-2.9 5.27-4 3.25-1.65 5.89-1.99 15.42-1.99 6.33 0.01 13.97 0.61 17 1.33 3.03 0.73 9.1 2.47 13.5 3.87 4.4 1.4 11.83 4.42 16.5 6.71 4.67 2.3 10.64 5.61 13.25 7.38 2.61 1.76 4.92 3.09 5.12 2.95 0.2-0.14 8.69-11.28 18.87-24.75l18.5-24.5c-8.71-6.38-14.84-10.32-19.24-12.86-4.4-2.55-12.05-6.22-17-8.17-4.95-1.95-13.28-4.66-18.5-6.02-5.22-1.36-14.45-3.13-20.5-3.94-6.05-0.81-17.3-1.44-25-1.39-7.7 0.04-17.6 0.65-22 1.34z"/>
	</g>
</svg>